<?xml version="1.0" encoding="utf-8" ?>
<svg xmlns="http://www.w3.org/2000/svg" xmlns:xlink="http://www.w3.org/1999/xlink" width="451" height="451">
	<path fill="#FDFCF6" transform="scale(0.44043 0.44043)" d="M0 0L1024 0L1024 1024L0 1024L0 0Z"/>
	<path fill="#F8F6EE" transform="scale(0.44043 0.44043)" d="M757.511 157.186C757.827 157.119 758.144 157.058 758.458 156.986C766.635 155.099 775.107 149.935 782.885 146.654C808.559 135.825 843.553 126.324 869.362 141.576C878.539 146.999 884.723 155.051 887.293 165.428C890.616 178.847 887.68 192.395 880.567 204.04C872.696 216.926 858.584 231.832 843.37 235.547C838.039 236.849 832.598 236.9 827.15 237.08L826.182 236.345C813.578 215.993 798.83 196.153 781.878 179.19C775.835 173.088 764.689 161.548 757.561 157.506L757.511 157.186Z"/>
	<path fill="#F8F6EE" transform="scale(0.44043 0.44043)" d="M282.004 807.227C287.18 805.051 293.258 804.111 298.794 803.151C324.624 798.671 349.015 801.492 373.189 811.365C389.111 817.866 414.316 828.141 421.347 844.664C425.172 853.654 425.712 863.776 421.961 872.886C415.897 887.617 399.672 897.662 385.531 903.38C363.294 912.372 340.473 909.313 318.92 900.081C292.486 888.76 266.989 870.774 244.33 853.217C227.256 869.271 206.607 882.714 182.415 882.007C167.324 881.566 150.498 877.888 139.735 866.53C134.848 861.374 131.501 855.051 131.668 847.771C131.803 841.869 134.224 835.822 138.727 831.891C149.208 822.744 179.809 821.022 193.656 821.561C211.39 821.402 229.623 820.166 247.012 816.523C258.8 814.054 270.413 810.487 282.004 807.227Z"/>
	<path fill="#3D3E3C" transform="scale(0.44043 0.44043)" d="M206.115 160.126C201.079 156.256 195.05 153.514 189.574 150.305C181.177 145.384 172.758 139.7 165.224 133.536C157.496 127.214 133.637 105.246 132.664 95.4612C133.138 94.2386 133.076 94.21 134.222 93.6003C137.838 93.7663 152.05 103.17 156.088 105.563C175.589 117.124 194.82 128.492 215.684 137.477C252.786 153.455 285.033 164.008 324.035 174.515C344.524 180.035 365.441 184.388 385.72 190.622C385.885 190.36 386.036 190.088 386.216 189.837C390.715 183.564 397.436 177.708 402.944 172.309C443.558 132.499 500.808 106.061 557.256 100.115Q567.459 99.0179 577.714 98.6495Q587.97 98.2812 598.225 98.6436Q608.481 99.006 618.685 100.097Q628.889 101.188 638.989 103.003C680.625 110.733 724.639 130.531 757.511 157.186L757.561 157.506C764.689 161.548 775.835 173.088 781.878 179.19C798.83 196.153 813.578 215.993 826.182 236.345L827.15 237.08Q831.756 244.324 835.721 251.937Q839.686 259.551 842.98 267.478C867.067 258.58 891.927 249.019 903.481 224.17C907.089 216.41 909.083 208.617 911.495 200.493C918.901 206.818 924.871 215.41 925.492 225.439C926.192 236.755 918.628 246.956 911.391 254.864C905.196 261.634 898.04 267.237 890.792 272.811C890.979 272.733 891.167 272.657 891.354 272.576C906.56 266.008 927.674 251.471 938.812 239.341C940.353 237.663 944.268 231.283 946.508 231.961C948.481 234.997 946.557 242.645 945.781 246.184C941.626 265.112 929.711 278.71 916.39 291.983C934.437 288.854 951.907 282.531 969.694 279.124C970.225 279.856 970.371 279.727 970.281 280.498C969.614 286.269 954.264 298.539 949.477 301.789C939.142 308.806 928.313 314.127 916.907 319.122C924.221 318.413 961.548 315.071 966.377 319.254C966.556 319.409 966.706 319.595 966.871 319.765C966.758 321.144 966.307 321.691 965.256 322.605C949.784 336.058 913.653 343.399 893.393 345.631C899.099 346.052 904.814 345.947 910.515 346.347C922.293 347.174 933.714 349.451 945.093 352.532C949.057 353.605 954.054 354.549 957.24 357.268L957.794 358.537C957.057 360.312 956 361.098 954.233 361.831C943.121 366.439 901.445 370.375 888.189 369.625C879.275 369.12 869.063 366.721 860.456 367.113C860.646 367.224 860.832 367.341 861.024 367.447C864.074 369.134 877.015 370.257 881.172 371.017C891.408 372.889 942.467 383.434 945.412 391.992C944.692 393.207 943.394 393.476 942.076 393.823C937.112 395.13 931.548 395.442 926.448 395.988C904.3 398.357 883.021 398.086 860.857 396.342C885.922 407.676 902.215 408.527 923.259 429.828C924.211 430.992 925.117 431.842 925.141 433.431C924.249 434.851 923.5 435.371 921.849 435.764C912.096 438.086 883.485 433.553 872.547 431.266C865.797 429.854 859.176 427.916 852.46 426.375C860.942 430.586 891.852 444.199 895.716 450.766C895.757 451.459 896.03 452.03 895.459 452.542C891.425 456.17 864.644 453.208 859.173 452.417C856.988 452.101 854.654 451.85 852.529 451.261C849.622 450.456 846.016 448.426 843.12 448.234L842.441 448.714C836.003 454.436 829.364 454.136 821.329 454.153C825.84 455.864 830.261 457.526 834.324 460.171C884.78 475.108 934.967 511.384 960.378 558.215C983.712 601.216 993.13 640.411 990.406 689.21Q989.78 698.871 988.607 708.481Q987.435 718.091 985.72 727.619Q984.005 737.147 981.754 746.563Q979.502 755.979 976.721 765.252C960.289 820.316 923.724 873.184 872.424 900.805C831.745 922.708 784.493 920.669 741.361 907.664C692.687 892.989 648.328 867.626 601.612 847.958Q582.499 839.887 562.646 833.862C552.537 830.822 541.896 828.411 532.048 824.65C530.363 826.932 528.447 829.231 526.057 830.8C523.398 832.546 520.427 833.316 517.299 832.514C510.876 830.867 507.459 824.411 504.511 819.076C502.831 827.68 500.966 838.137 495.153 845.04C493.564 846.927 491.476 848.542 488.919 848.645C486.666 848.736 484.28 847.608 482.674 846.073C478.448 842.033 478.331 835.508 478.139 830.082C476.564 833.38 475.053 836.824 472.673 839.633C470.174 842.582 466.898 844.679 462.954 844.827Q462.392 844.848 461.831 844.812Q461.27 844.777 460.716 844.684Q460.161 844.592 459.619 844.445Q459.076 844.297 458.551 844.096Q458.026 843.894 457.525 843.641Q457.023 843.388 456.549 843.085Q456.075 842.782 455.634 842.434Q455.193 842.085 454.79 841.693C449.313 836.476 449.002 828.872 449.021 821.828C445.292 824.439 440.823 826.941 436.095 826.316C432.632 825.859 429.846 823.627 427.837 820.88C421.033 811.572 421.592 799.72 423.471 788.953C421.354 791.644 419.33 794.318 416.543 796.363C413.153 798.85 409.005 800.419 404.762 799.589C401.718 798.994 399.27 797.051 397.689 794.422C394.252 788.708 395.724 782.762 397.055 776.714C391.589 780.026 386.885 785.323 380.72 787.37C377.53 788.43 373.436 788.912 370.344 787.283C367.515 785.793 366.144 782.742 365.416 779.776C363.47 771.84 365.839 765.966 369.869 759.297C365.481 759.907 361.267 760.646 357.259 758.127C354.803 756.584 353.401 754.151 352.771 751.362C350.918 743.155 355.653 735.601 359.856 729.011C341.16 727.858 321.666 723.181 305.828 712.799C298.149 707.765 291.254 701.559 284.067 695.862Q280.188 692.761 276.111 689.926Q272.034 687.09 267.777 684.532Q263.52 681.974 259.103 679.705Q254.685 677.437 250.126 675.467C238.028 670.252 225.485 665.502 212.912 661.564C183.311 652.292 153.906 645.441 127.144 629.06C108.458 617.622 91.2742 600.543 86.0661 578.602C82.172 562.196 87.1494 543.917 95.8952 529.87C123.249 485.936 190.114 451.37 239.177 439.952C253.611 434.291 267.294 433.692 282.543 434.382C288.132 426.779 295.226 420.174 302.275 413.939C295.308 415.819 288.466 417.378 281.282 418.248C276.944 418.773 267.261 420.704 263.87 417.374C263.089 416.608 262.725 415.567 262.727 414.487C262.746 407.2 273.184 398.722 278.144 394.136Q273.62 395.028 269.067 395.764C262.687 396.817 239.701 400.7 235.19 397.47L235.108 396.499C237.958 389.994 250.845 379.117 256.646 374.301C246.264 375.604 235.941 377.01 225.472 377.438C219.753 377.671 199.122 378.448 195.66 375.259C197.712 369.65 228.861 352.323 235.276 348.408C223.361 349.043 211.94 349.392 200.038 347.984C193.194 347.175 170.089 343.686 166.733 338.619C166.317 337.99 166.516 338.013 166.685 337.148C168.685 335.276 171.461 334.327 173.938 333.215C173.233 332.83 154.243 331.242 149.898 330.158C129.822 325.15 109.59 316.713 91.5967 306.53C81.0097 300.539 66.3345 291.38 63.1389 278.678Q63.0221 278.202 62.9294 277.72Q62.8367 277.239 62.7684 276.753Q62.7001 276.267 62.6563 275.779Q62.6125 275.291 62.5934 274.801Q62.5742 274.311 62.5798 273.82Q62.5853 273.33 62.6156 272.84Q62.6458 272.351 62.7006 271.864Q62.7555 271.376 62.8348 270.892Q62.9141 270.408 63.0176 269.929Q63.1212 269.45 63.2488 268.976Q63.3763 268.503 63.5276 268.036Q63.6788 267.57 63.8534 267.112Q64.0279 266.653 64.2253 266.204Q64.4227 265.755 64.6424 265.317Q64.8621 264.879 65.1037 264.452Q65.3452 264.025 65.6079 263.611C73.4779 250.952 91.3124 244.683 104.998 241.386C105.267 240.356 105.47 239.59 106.098 238.72L107.762 238.469C116.326 236.403 125.737 235.237 134.51 234.318C141.729 233.563 175.201 232.115 179.513 229.741Q174.184 228.619 168.911 227.257C156.602 223.997 143.543 219.851 132.256 213.94C118.685 206.834 93.0523 185.016 85.7187 171.805C84.9165 170.36 84.443 169.522 84.9062 167.904C86.1091 167.428 86.8771 167.913 87.9898 168.472C93.2753 171.127 98.0966 174.199 103.594 176.516C119.7 183.303 137.835 185.509 155.008 188.047Q149.864 184.82 144.846 181.401C122.558 166.007 96.6309 132.248 92.2081 105.1C91.8806 103.09 91.6287 101.331 92.8641 99.5913C94.728 99.0455 101.649 105.138 103.775 106.524C110.907 111.173 118.426 115.24 125.655 119.74C133.628 124.704 141.297 130.126 149.415 134.864C167.248 145.273 186.609 153.438 206.115 160.126Z"/>
	<path fill="#548894" transform="scale(0.44043 0.44043)" d="M665 453.727C666.748 452.482 668.484 450.98 670.777 451.196C673.254 451.43 675.27 453.699 676.909 455.38C672.853 454.21 669.176 454.064 665 453.727Z"/>
	<path fill="#548894" transform="scale(0.44043 0.44043)" d="M685.393 433.651C687.501 434.15 689.297 436.844 690.567 438.517C694.043 443.096 698.51 451.288 697.701 457.141C695.942 450.99 693.672 446.188 689.429 441.326C687.824 439.488 685.802 437.618 684.603 435.511L685.393 433.651Z"/>
	<path fill="#9DAF83" transform="scale(0.44043 0.44043)" d="M603.303 368.852C600.528 370.752 597.743 372.648 594.836 374.343C591.391 376.353 582.934 382.2 579.465 381.286L579.452 380.444C580.969 378.488 597.765 369.978 601.031 368.69L603.303 368.852Z"/>
	<path fill="#FEE5A7" transform="scale(0.44043 0.44043)" d="M481.635 838.388C482.348 837.479 482.303 837.459 483.465 837.304C486.647 836.879 491.008 838.104 493.876 839.552C492.838 841.215 491.567 843.482 489.847 844.465C488.794 845.067 487.589 845.258 486.431 844.83C483.862 843.878 482.571 840.705 481.635 838.388Z"/>
	<path fill="#FDFCF6" transform="scale(0.44043 0.44043)" d="M346.905 701.677C345.779 700.63 345.13 699.379 344.667 697.932C343.662 694.789 342.45 688.625 344.07 685.513C346.533 687.744 349.29 689.3 352.149 690.959C350.156 694.456 348.173 697.838 346.905 701.677Z"/>
	<path fill="#FEE5A7" transform="scale(0.44043 0.44043)" d="M679.387 452.177C677.369 451.026 675.964 450.209 674.641 448.231C674.544 448.087 674.455 447.939 674.362 447.793C672.373 446.77 669.316 448.047 667.002 447.756C667.15 447.69 667.293 447.614 667.444 447.556C670.604 446.342 673.466 443.068 676.525 442.434L676.103 444.333C677.311 443.454 677.471 442.309 677.869 440.944C678.11 440.116 678.207 440.169 678.831 439.636C680.406 439.834 680.764 440.182 682.02 441.09L681.476 442.913C681.61 446.692 681.048 448.813 679.387 452.177Z"/>
	<path fill="#629DA4" transform="scale(0.44043 0.44043)" d="M579.391 385.856C580.899 386.892 582.18 388.443 583.467 389.749C575.762 392.326 570.393 395.396 564.605 401.135C563.37 399.934 562.315 398.369 562.208 396.654C562.502 396.82 562.766 397.054 563.089 397.152C563.403 397.248 563.748 397.28 564.07 397.22C564.76 397.091 567.67 394.216 568.384 393.638C571.891 390.8 575.598 388.291 579.391 385.856Z"/>
	<path fill="#F8F6EE" transform="scale(0.44043 0.44043)" d="M429.587 817.609C429.863 817.484 430.128 817.332 430.414 817.234C434.375 815.886 443.726 814.916 447.455 816.652C445.06 819.513 442.254 822.325 438.347 822.78C436.029 823.051 433.801 822.309 432.067 820.761C431.057 819.858 430.321 818.735 429.587 817.609Z"/>
	<path fill="#9DAF83" transform="scale(0.44043 0.44043)" d="M500.213 704.727C501.252 705.325 502.423 706.303 503.017 707.349C505.417 711.577 502.528 723.061 501.476 727.814C499.933 726.754 498.756 725.075 497.538 723.655C498.146 717.299 498.883 710.978 500.213 704.727Z"/>
	<path fill="#FEE5A7" transform="scale(0.44043 0.44043)" d="M452.926 830.854C454.999 830.002 457.237 831.395 459.281 832.251C463.069 833.837 466.023 835.834 468.271 839.335C467.227 840.08 466.212 840.762 464.976 841.148C462.745 841.845 460.374 841.7 458.351 840.481C454.8 838.341 453.731 834.638 452.926 830.854Z"/>
	<path fill="#FEE5A7" transform="scale(0.44043 0.44043)" d="M694.157 528.792Q700.096 534.919 706.991 539.948C707.103 540.029 707.218 540.105 707.331 540.184C706.665 541.304 704.881 541.983 703.717 542.629C699.17 544.07 695.352 542.836 691.118 541.179C692.212 537.073 693.171 532.924 694.157 528.792Z"/>
	<path fill="#9DAF83" transform="scale(0.44043 0.44043)" d="M682.02 441.09C687.389 445.282 692.934 450.853 693.915 457.907C694.652 463.21 692.142 466.623 689.025 470.56C688.35 465.293 684.216 446.663 681.476 442.913L682.02 441.09Z"/>
	<path fill="#B7D5DC" transform="scale(0.44043 0.44043)" d="M909.368 218.527L909.636 218.713C909.487 222.583 908.289 226.611 906.87 230.201C897.995 252.654 880.627 258.057 860.286 266.949L860.048 266.856C862.023 264.469 867.563 262.157 870.367 260.526C888.774 249.818 901.985 239.347 909.368 218.527Z"/>
	<path fill="#629DA4" transform="scale(0.44043 0.44043)" d="M584.725 392.366L585.377 392.406C587.951 393.823 590.655 397.096 592.436 399.427C584.565 400.706 577.814 403.723 571.4 408.435L568.759 410.8C567.568 408.489 566.488 406.099 565.361 403.755C571.21 398.502 577.614 395.512 584.725 392.366Z"/>
	<path fill="#B7D5DC" transform="scale(0.44043 0.44043)" d="M929.909 253.053C929.742 254.029 929.876 253.89 929.443 254.592C920.387 269.292 876.351 288.123 858.994 292.969C859.354 291.794 862.214 291.054 863.369 290.552C886.653 280.43 909.662 268.395 929.909 253.053Z"/>
	<path fill="#FEE5A7" transform="scale(0.44043 0.44043)" d="M843.373 354.726C850.928 354.319 858.515 356.451 865.892 357.87C860.677 359.146 855.466 360.391 850.489 362.43L841.389 361.18C833.987 360.071 826.502 359.412 819.061 358.615L818.727 359.191L818.728 358.21L816.634 358.072L816.63 357.621C820.747 355.517 837.836 355.147 843.373 354.726Z"/>
	<path fill="#629DA4" transform="scale(0.44043 0.44043)" d="M617.6 421.36C620.144 421.658 624.263 425.327 626.433 426.871C611.259 433.16 610.888 430.352 602.226 445.829C602.177 446.442 602.16 446.868 602.321 447.474C602.361 447.626 602.414 447.775 602.46 447.926L602.184 447.417L601.556 447.246C600.325 445.545 598.86 444.061 597.425 442.534C602.517 432.103 607.205 426.682 617.6 421.36Z"/>
	<path fill="#FEE5A7" transform="scale(0.44043 0.44043)" d="M636.541 434.239C642.888 438.159 649.078 442.264 654.968 446.85C650.397 447.108 645.229 443.022 641.153 444.655C640.35 445.625 640.159 446.502 639.822 447.691C636.837 446.206 633.786 444.468 630.494 443.839L630.345 444.291C631.981 446.709 634.459 448.393 636.722 450.199C631.4 448.635 625.999 447.31 620.632 445.908C624.973 440.659 630.715 437.54 636.541 434.239Z"/>
	<path fill="#B7D5DC" transform="scale(0.44043 0.44043)" d="M696.711 512.774C699.694 514.894 712.141 528.361 714.293 531.656C715.714 533.831 716.17 535.608 715.633 538.142C714.998 538.153 714.365 538.16 713.73 538.131C706.854 537.817 699.791 530.263 695.387 525.542C695.545 521.29 696.219 517.002 696.711 512.774Z"/>
	<path fill="#B7D5DC" transform="scale(0.44043 0.44043)" d="M508.224 518.971L508.77 519.558C508.666 519.782 508.571 520.009 508.459 520.229C504.511 527.963 474.397 542.128 465.951 544.556C462.405 545.575 456.569 546.951 453.261 545.135L450.343 542.321C469.884 541.19 492.18 529.913 508.224 518.971Z"/>
	<path fill="#ECB664" transform="scale(0.44043 0.44043)" d="M179.513 229.741C182.282 230.294 185.068 230.808 187.827 231.411C173.668 237.248 142.173 237.832 126.054 238.439C120.193 238.66 113.528 239.551 107.762 238.469C116.326 236.403 125.737 235.237 134.51 234.318C141.729 233.563 175.201 232.115 179.513 229.741Z"/>
	<path fill="#9DAF83" transform="scale(0.44043 0.44043)" d="M627.517 427.692C629.782 429.075 631.972 430.566 634.172 432.047C632.23 432.753 630.295 433.471 628.45 434.407C618.423 439.492 613.4 447.705 610.005 458.108C608.061 455.209 606 452.44 603.863 449.68C610.169 437.321 615.453 433.924 627.517 427.692Z"/>
	<path fill="#9DAF83" transform="scale(0.44043 0.44043)" d="M643.819 490.524C650.275 492.41 655.999 492.637 662.653 492.562C655.185 499.481 648.7 507.111 642.111 514.853C639.093 518.384 636.27 522.094 633.397 525.745C635.751 513.914 638.689 501.483 643.819 490.524Z"/>
	<path fill="#FEE5A7" transform="scale(0.44043 0.44043)" d="M815.25 362.746C819.842 362.907 824.479 363.965 829.018 364.685C837.437 366.021 845.776 367.222 854.048 369.325C856.395 369.881 859.582 369.749 861.577 370.997C857.752 370.673 852.643 372.107 848.747 372.692C836.391 374.544 820.326 375.969 808.537 370.974C810.861 368.308 813.038 365.505 815.25 362.746Z"/>
	<path fill="#FEE5A7" transform="scale(0.44043 0.44043)" d="M500.902 697.675C500.88 696.255 500.795 694.73 500.966 693.319C501.473 689.132 508.575 687.072 511.769 685.24C513.731 684.115 515.526 682.722 517.326 681.359C517.787 690.653 519.462 699.952 521.089 709.098C519.511 710.109 517.861 711.393 516.132 712.097C516.03 711.333 515.859 710.591 515.7 709.838C514.368 708.234 512.323 707.835 510.408 707.194L510.126 706.796C507.681 703.273 504.056 700.561 500.902 697.675Z"/>
	<path fill="#ECB664" transform="scale(0.44043 0.44043)" d="M711.779 384.716C721.602 384.337 731.78 385.615 740.9 389.349C733.398 391.608 726.247 393.58 718.436 394.537C708.544 394.75 697.883 393.873 688.036 392.815C695.964 387.349 702.067 385.113 711.779 384.716Z"/>
	<path fill="#629DA4" transform="scale(0.44043 0.44043)" d="M627.036 452.107C638.05 454.465 648.621 452.067 659.686 452.46C656.179 457.201 652.151 461.695 648.397 466.252Q643.788 471.912 639.315 477.681C635.698 468.912 630.968 460.719 627.036 452.107Z"/>
	<path fill="#B7D5DC" transform="scale(0.44043 0.44043)" d="M703.614 492.64C707.762 493.24 711.629 492.772 715.744 492.228C722.367 497.448 729.015 502.82 735.913 507.666C740.288 510.738 745.236 513.218 749.384 516.563C749.918 516.993 749.988 517.602 750.22 518.233C748.767 518.884 747.419 519.374 745.821 519.53C728.789 521.191 715.993 502.544 704.255 493.148L703.614 492.64Z"/>
	<path fill="#B7D5DC" transform="scale(0.44043 0.44043)" d="M696.988 490.857C705.19 498.001 712.365 506.237 720.568 513.347C724.211 516.504 732 520.02 734.212 524.141C735.214 526.009 734.94 527.428 734.454 529.37C732.336 530.303 730.136 530.721 727.818 530.479C716.534 529.298 703.99 516.06 697.225 507.788C696.774 502.224 697.015 496.449 696.988 490.857Z"/>
	<path fill="#629DA4" transform="scale(0.44043 0.44043)" d="M665 453.727C669.176 454.064 672.853 454.21 676.909 455.38L678.086 456.533C678.431 461.078 668.106 482.573 665.455 487.456C658.021 487.287 650.707 487.174 643.274 487.445C642.35 485.91 641.557 484.298 640.731 482.708C645.75 476.049 659.193 458.096 665 453.727Z"/>
	<path fill="#B7D5DC" transform="scale(0.44043 0.44043)" d="M741.551 465.969C749.284 469.536 756.596 473.564 764.586 476.638C774.318 480.383 784.492 482.899 794.4 486.147C790.39 488.743 786.412 490.395 781.865 491.815C776.687 492.577 772.212 493.052 767.002 492.136C754.341 489.909 737.736 481.345 730.164 470.684C734.519 469.887 738.508 469.518 741.551 465.969Z"/>
	<path fill="#B7D5DC" transform="scale(0.44043 0.44043)" d="M767.322 437.358C770.179 438.104 773.329 439.943 776.038 441.189C782.984 444.383 789.845 447.79 797.014 450.468C806.013 453.829 822.18 456.093 829.529 460.884C830.67 461.629 831.215 462.019 831.457 463.369C831.335 463.522 831.229 463.691 831.089 463.829C828.35 466.535 820.984 467.035 817.305 467.398C804.641 467.183 792.71 460.444 781.234 455.686C771.678 451.724 762.052 447.711 752.256 444.38C758.152 442.603 762.807 442.007 767.322 437.358Z"/>
	<path fill="#9DAF83" transform="scale(0.44043 0.44043)" d="M590.087 403.092L595.294 402.873C601.624 407.514 607.456 412.546 614.217 416.62C604.323 421.691 599.364 429.167 594.295 438.735L593.902 438.794C589.498 436.157 574.809 418.945 570.743 414.339C576.77 408.73 581.995 405.008 590.087 403.092Z"/>
	<path fill="#B7D5DC" transform="scale(0.44043 0.44043)" d="M729.63 476.191C733.344 478.195 736.93 482.129 740.086 484.99C750.993 494.877 761.191 501.433 775.464 505.194C770.502 508.981 765.01 510.5 758.912 511.124C756.938 511.123 755.01 510.954 753.098 510.434C746.554 508.658 717.342 492.546 714.483 487.578L715.407 486.808C716.093 486.771 716.971 486.785 717.622 486.574C718.841 486.18 719.217 485.314 719.761 484.247C719.869 482.635 719.496 481.495 718.984 479.968L718.775 479.357C721.898 477.527 725.247 479.723 729.223 476.527C729.36 476.417 729.495 476.303 729.63 476.191Z"/>
	<path fill="#ECB664" transform="scale(0.44043 0.44043)" d="M731.634 359.541C731.958 359.592 732.283 359.638 732.606 359.694C738.802 360.762 743.871 364.848 747.297 369.973C751.084 375.637 753.904 384.562 752.644 391.373L751.752 391.721L751.72 392.248L751.233 392.165C746.378 385.785 740.261 383.553 732.814 381.371C725.42 379.849 717.828 379.836 710.313 379.733C707.417 379.693 704.149 379.991 701.326 379.46C700.306 379.269 700.733 379.495 700.066 378.517C700.954 374.57 703.698 370.422 705.475 366.767C714.825 364.075 723.037 365.08 731.634 359.541Z"/>
	<path fill="#FEE5A7" transform="scale(0.44043 0.44043)" d="M764.839 429.922C770.19 428.363 775.8 427.763 781.094 426.048C782.041 425.18 782.114 424.439 782.325 423.235C782.352 423.08 782.376 422.924 782.401 422.768L782.917 422.436C802.735 431.565 823.408 438.846 843.12 448.234L842.441 448.714C840.376 448.41 838.054 449.223 835.992 449.57C814.295 453.214 782.846 442.74 764.839 429.922Z"/>
	<path fill="#B7D5DC" transform="scale(0.44043 0.44043)" d="M752.235 447.644C761.847 450.402 801.307 467.258 807.826 472.735C804.227 474.756 800.394 475.883 796.405 476.854C790.196 478.136 783.791 477.543 777.66 476.132C767.995 473.908 751.028 468.679 743.769 462.032C742.456 460.83 741.5 459.147 740.564 457.645C743.348 457.011 746.267 456.032 748.563 454.288C750.945 452.479 751.945 450.573 752.235 447.644Z"/>
	<path fill="#FEE5A7" transform="scale(0.44043 0.44043)" d="M882.342 347.675C887.57 346.937 893.279 347.954 898.532 348.465C917.674 350.328 936.489 352.795 954.979 358.4C945.823 361.664 928.829 363.102 918.88 364.074C899.833 366.679 880.946 365.015 861.996 362.702C864.987 361.558 868.049 360.476 870.954 359.124C872.529 358.392 874.952 357.444 875.59 355.702C873.489 353.429 861.936 352.179 858.313 351.349C866.449 350.875 874.321 348.953 882.342 347.675Z"/>
	<path fill="#B7D5DC" transform="scale(0.44043 0.44043)" d="M913.657 208.283C917.597 210.841 920.075 216.157 921.316 220.538C923.214 227.234 921.577 233.629 918.282 239.572C903.641 265.982 868.013 284.305 840.107 292.498C839.006 292.925 838.286 293.3 837.083 293.121C836.271 292.538 835.852 292.098 835.405 291.224C834.696 289.838 833.857 288.561 833.009 287.257C842.581 280.391 859.391 272.485 870.452 267.191C880.476 262.393 891.842 257.914 899.869 250.037C911.541 238.583 913.592 223.872 913.657 208.283Z"/>
	<path fill="#B7D5DC" transform="scale(0.44043 0.44043)" d="M433.81 722.892C433.885 723.69 433.904 723.359 433.779 724.148C433.175 727.963 432.008 733.432 433.778 736.98C434.379 737.345 434.553 737.642 435.3 737.501C439.428 736.725 445 727.666 447.538 724.312C439.886 745.618 428.574 769.126 417.565 788.93C415.763 791.68 413.464 795.152 410.121 796.101C408.208 796.644 406.181 796.34 404.468 795.346C401.894 793.854 400.096 790.927 399.384 788.095C398.905 786.185 398.922 784.505 399.404 782.595C403.165 767.699 424.828 737.129 433.81 722.892Z"/>
	<path fill="#FEE5A7" transform="scale(0.44043 0.44043)" d="M683.133 459.809C684.711 464.272 683.827 474.717 685.801 476.95C688.693 476.567 690.537 473.45 692.28 471.311C692.545 502.057 696.858 520.781 683.991 550.479C683.699 550.784 683.917 550.616 683.205 550.727C681.052 546.755 679.935 541.494 678.739 537.1C674.471 521.423 671.473 505.62 668.566 489.651C674.896 481.202 678.906 469.513 683.133 459.809Z"/>
	<path fill="#B7D5DC" transform="scale(0.44043 0.44043)" d="M497.142 730.925C497.942 732.52 498.6 734.442 500.287 735.239C501.595 735.221 501.998 735.321 503.008 734.372C505.875 731.678 506.81 722.579 507.286 718.726L507.741 718.781C507.184 742.687 502.51 764.441 500.965 787.907C500.376 796.859 502.814 805.473 501.537 814.384C500.329 822.818 497.783 831.962 493.876 839.552C491.008 838.104 486.647 836.879 483.465 837.304C482.303 837.459 482.348 837.479 481.635 838.388C481.227 834.214 480.362 828.493 480.8 824.381C481.314 819.554 483.382 814.698 484.605 809.995C485.801 805.394 486.591 800.623 487.55 795.961C490.598 781.138 493.114 766.444 495.055 751.437C495.932 744.651 497.045 737.775 497.142 730.925Z"/>
	<path fill="#ECB664" transform="scale(0.44043 0.44043)" d="M652.726 659.385C656.989 668.004 663.887 673.572 670.077 680.69C680.759 692.973 688.55 709.966 683.022 726.26C681.573 730.531 679.326 734.077 676.739 737.732C680.498 724.682 679.722 717.361 673.21 705.578C671.897 703.203 670.199 700.713 669.218 698.191C667.87 694.727 669.024 690.012 665.857 687.482L664.473 687.277C662.605 688.92 662.58 691.781 662.443 694.137C662.236 697.705 662.462 701.714 661.726 705.192C660.196 712.417 655.461 719.741 650.023 724.641Q648.718 725.802 647.32 726.849Q645.922 727.897 644.442 728.824Q642.961 729.751 641.408 730.55Q639.855 731.35 638.241 732.017C639.624 727.104 639.588 723.412 638.326 718.413C642.718 716.884 648.179 715.502 650.278 710.845C651.796 707.477 650.843 703.527 649.508 700.267C646.133 692.024 639.37 686.382 634.736 679.023C633.488 677.042 632.619 674.794 631.638 672.674L643.885 674.542C645.827 672.898 649.543 671.104 650.674 669.07C650.555 667.943 650.791 668.174 649.808 667.362C650.037 666.432 650.401 665.668 650.787 664.79C651.632 663.082 652.142 661.196 652.726 659.385Z"/>
	<path fill="#FEE5A7" transform="scale(0.44043 0.44043)" d="M788.937 405.17C799.002 405.387 810.239 412.16 819.507 416.036C841.137 425.084 872.015 436.211 890.335 450.259C885.863 450.458 881.348 450.191 876.875 450.058C868.438 449.86 859.474 449.377 851.321 447.117C839.843 443.935 829.012 437.583 818.083 432.873C808.663 428.813 798.679 425.669 789.537 421.028C786.563 419.518 784.019 417.473 781.425 415.397C784.56 414.808 790.822 414.141 793.113 411.748C793.99 410.831 793.803 410.217 793.687 409.085C792.693 407.203 790.69 406.273 788.937 405.17Z"/>
	<path fill="#FEE5A7" transform="scale(0.44043 0.44043)" d="M632.355 611.058C635.206 609.082 638.057 606.873 641.095 605.208C644.983 612.018 648.638 619.07 653.609 625.169C653.196 634.338 651.424 650.894 652.726 659.385C652.142 661.196 651.632 663.082 650.787 664.79C650.401 665.668 650.037 666.432 649.808 667.362C650.791 668.174 650.555 667.943 650.674 669.07C649.543 671.104 645.827 672.898 643.885 674.542L631.638 672.674L630.015 671.502C629.01 669.101 628.804 666.303 628.399 663.74L627.796 663.331L627.092 663.948C625.49 668.943 626.247 676.033 627.097 681.157C621.568 676.262 618.268 670.21 614.602 663.917C614.046 660.545 612.12 651.23 613.69 648.48C614.451 649.804 614.967 651.094 616.459 651.698L617.525 651.586C620.362 649.925 623.768 649.158 626.408 647.344C626.636 645.163 626.219 642.923 626.398 640.744C626.5 639.495 626.805 638.954 627.726 638.161L628.264 638.905C630.497 637.547 632.765 636.214 634.776 634.534C637.854 631.963 640.266 628.953 643.795 626.92C639.367 622.228 635.889 616.437 632.355 611.058Z"/>
	<path fill="#3D3E3C" transform="scale(0.44043 0.44043)" d="M626.408 647.344C626.636 645.163 626.219 642.923 626.398 640.744C626.5 639.495 626.805 638.954 627.726 638.161L628.264 638.905C629.119 641.659 630.922 645.543 629.557 648.241C628.222 648.435 627.521 648.168 626.408 647.344Z"/>
	<path fill="#3D3E3C" transform="scale(0.44043 0.44043)" d="M649.808 667.362C647.699 665.348 646.183 662.296 645.042 659.626C643.362 655.694 641.094 647.686 642.66 643.611L643.312 643.834C646.513 649.831 648.327 658.228 650.787 664.79C650.401 665.668 650.037 666.432 649.808 667.362Z"/>
	<path fill="#ECB664" transform="scale(0.44043 0.44043)" d="M498.711 677.917C499.127 678.28 498.856 677.995 499.214 678.982C498.446 680.934 498.252 682.261 498.446 684.36C498.637 686.428 495.038 689.284 494.645 691.912C494.129 695.361 494.168 699.009 493.852 702.494C492.767 714.465 491.444 727.745 487.011 738.992C487.022 729.54 487.425 711.28 484.522 702.748C484.085 701.466 483.715 701.047 482.525 700.469C480.916 701.101 480.568 702.085 479.771 703.547C476.708 709.162 474.579 715.284 471.858 721.074C467.244 730.895 461.346 740.729 454.81 749.392C455.38 741.696 456.939 734.288 458.84 726.832C459.975 722.621 461.264 718.228 463.285 714.348C464.339 712.326 465.863 710.319 466.656 708.195C467.057 707.119 467.023 707.005 466.533 706.046C465.67 705.785 465.357 705.597 464.432 705.751C456.462 707.071 440.937 724.219 436.204 730.474C438.873 720.604 442.635 712.227 448.44 703.767C452.037 698.523 462.323 683.126 468.617 681.945C468.328 683.223 468.078 684.256 468.279 685.58C469.115 686.228 469.456 686.482 470.559 686.583C475.574 687.039 481.845 681.227 485.368 678.17C485.231 680.043 484.936 681.657 485.795 683.381C486.663 684.125 487.095 684.593 488.338 684.554C491.696 684.448 496.242 679.921 498.711 677.917Z"/>
	<path fill="#FEE5A7" transform="scale(0.44043 0.44043)" d="M866.649 373.682C869.432 372.348 874.679 373.413 877.711 373.826C896.847 376.431 914.532 381.954 932.712 388.346L939.19 390.645C907.727 396.196 869.098 395.018 837.777 388.704C827.419 386.615 815.69 382.071 805.669 380.588C807.815 379.722 808.796 378.426 810.268 376.701C828.585 379.225 848.946 380.163 866.649 373.682Z"/>
	<path fill="#B7D5DC" transform="scale(0.44043 0.44043)" d="M831.556 322.557C856.223 319.536 873.044 320.789 896.15 308.568C901.994 305.477 909.58 297.464 914.35 295.893C919.976 294.041 926.359 293.474 932.175 292.236C942.979 289.934 954.045 287.08 964.547 283.661C951.034 297.734 934.345 307.988 916.258 315.062C912.562 316.508 908.74 317.849 904.898 318.856C900.521 320.004 880.677 322.851 878.442 325.672C879.115 327.011 880.592 327.476 881.875 328.108L883.257 328.266C877.678 329.889 870.525 329.434 864.662 329.837C853.568 330.6 842.369 331.774 831.262 331.99C830.248 331.268 831.56 329.487 830.704 328.001L828.229 327.524C829.132 325.77 830.414 324.164 831.556 322.557Z"/>
	<path fill="#B7D5DC" transform="scale(0.44043 0.44043)" d="M452.926 830.854C450.598 817.329 458.781 808.864 463.13 797.025C468.556 782.259 472.62 767.061 476.134 751.739C477.838 744.308 479.021 736.633 481.08 729.3C481.551 734.935 480.886 749.849 483.259 753.945C484.583 754.042 485.078 753.915 486.053 752.952C488.915 750.128 490.598 744.942 492.074 741.256C490.707 749.041 489.913 756.901 488.607 764.692Q485.023 784.909 480.674 804.975C479.079 812.54 477.951 820.518 475.253 827.778C473.633 832.138 471.516 835.959 468.271 839.335C466.023 835.834 463.069 833.837 459.281 832.251C457.237 831.395 454.999 830.002 452.926 830.854Z"/>
	<path fill="#B7D5DC" transform="scale(0.44043 0.44043)" d="M942.395 239.929C942.66 240.197 942.688 240.153 942.769 240.567C943.625 244.916 936.769 259.4 934.283 263.54C924.174 280.378 904.896 296.604 887.177 305.22C879.061 309.166 869.784 312.098 861.023 314.209C856.061 315.404 836.941 319.715 833.678 317.711L834.162 316.37C834.815 314.462 836.046 311.107 835.197 309.196C834.619 307.896 833.719 307.478 832.499 306.95C832.361 306.89 832.221 306.835 832.082 306.777L831.973 306.112C833.017 304.941 833.976 303.928 835.435 303.289C840.279 301.167 845.96 300.307 851.091 299.096C858.497 297.349 865.886 295.399 873.063 292.852C884.179 288.907 895.249 283.766 905.463 277.866C915.979 271.791 927.488 264.678 933.515 253.741C936.339 248.616 938.149 244.154 942.395 239.929Z"/>
	<path fill="#FEE5A7" transform="scale(0.44043 0.44043)" d="M881.875 328.108C891.641 322.208 949.595 319.409 961.41 321.771C928.253 338.982 900.346 340.411 864.477 345.85C852.111 346.975 830.476 353.448 820.042 352.554L819.644 351.926C819.982 350.596 820.449 349.244 820.041 347.886C819.951 347.585 819.821 347.296 819.754 346.989C819.079 343.907 826.842 338.211 828.894 335.5C829.024 335.328 829.151 335.153 829.28 334.979C843.589 335.091 858.664 335.644 872.863 333.889C870.816 335.196 868.852 336.563 867.418 338.544C875.02 338.219 885.561 334.987 891.353 330.04C888.647 329.298 886.042 328.655 883.257 328.266L881.875 328.108Z"/>
	<path fill="#9DAF83" transform="scale(0.44043 0.44043)" d="M757.678 671.925C757.99 672.423 758.035 672.462 758.31 673.088C766.929 692.713 751.923 730.377 744.666 749.494C740.191 744.836 736.239 739.301 732.159 734.274C725.786 726.586 719.906 718.931 714.826 710.311C720.327 705.829 726.303 701.927 731.795 697.41C741.208 689.67 749.478 680.914 757.678 671.925Z"/>
	<path fill="#B7D5DC" transform="scale(0.44043 0.44043)" d="M407.492 437.409C408.231 437.399 408.591 437.522 409.195 438.02C411.18 439.658 413.032 442.335 414.781 444.28Q419.531 449.648 425.021 454.257C411.24 462.552 364.91 481 349.284 481.782C343.129 481.505 337.177 480.638 331.182 479.233C334.93 473.872 339.783 469.353 343.45 463.921C365.682 456.827 386.967 448.607 407.492 437.409Z"/>
	<path fill="#FEE5A7" transform="scale(0.44043 0.44043)" d="M372.84 370.639C375.264 375.488 373.968 377.786 377.926 383.377C377.827 383.512 377.74 383.658 377.629 383.782C375.332 386.343 369.423 388.008 366.234 389.296C340.229 399.799 300.343 411.997 272.463 415.105C270.267 415.187 268.044 415.061 265.847 415.009C270.106 406.353 278.325 400.395 284.077 392.775C314.071 386.545 343.352 378.894 372.84 370.639Z"/>
	<path fill="#9DAF83" transform="scale(0.44043 0.44043)" d="M665.812 493.45C667.576 498.946 667.775 505.825 668.739 511.589C670.006 519.16 671.874 526.61 673.713 534.058C663.442 550.53 650.013 563.592 637.812 578.473C637.046 579.187 637.031 579.502 635.943 579.547C632.751 575.746 631.682 562.342 631.491 557.254C631.223 550.106 630.515 539.303 632.753 532.543C634.811 526.325 659.749 499.929 665.812 493.45Z"/>
	<path fill="#9DAF83" transform="scale(0.44043 0.44043)" d="M465.742 480.516C468.223 480.954 471.292 482.651 473.74 483.549C479.534 485.675 485.329 487.629 491.253 489.359C480.262 498.947 468.238 517.975 454.685 522.759C447.636 525.248 440.017 525.775 432.622 526.389C426.897 526.524 412.043 527.379 407.73 524.179C407.19 523.779 407.12 523.872 407.128 523.253C407.162 520.566 410.434 516.477 412.05 514.369C415.053 510.451 418.754 505.323 422.794 502.457C425.954 500.215 430.531 498.951 434.134 497.519C444.386 493.446 457.283 488.635 465.29 480.958C465.442 480.812 465.591 480.663 465.742 480.516Z"/>
	<path fill="#B7D5DC" transform="scale(0.44043 0.44043)" d="M463.979 605.53L464.194 605.8C463.511 608.781 458.779 613.538 456.78 616.143C453.11 620.93 449.554 626.154 445.251 630.379C439.457 636.069 432.486 640.712 425.706 645.146Q412.451 653.9 398.505 661.506C383.972 669.507 369.89 676.618 356.666 686.771C354.471 686.005 352.417 685.17 350.344 684.116C349.704 683.606 349.033 683.084 348.481 682.478C347.389 681.278 347.04 679.53 347.155 677.955C347.366 675.078 348.975 672.32 350.428 669.889C363.024 648.806 397.301 641.867 418.538 632.174C434.128 625.059 450.732 616.47 463.979 605.53Z"/>
	<path fill="#B7D5DC" transform="scale(0.44043 0.44043)" d="M516.132 712.097C517.861 711.393 519.511 710.109 521.089 709.098C524.828 733.109 540.072 806.16 526.488 824.282C524.949 826.335 522.72 828.031 520.111 828.334C517.812 828.6 515.628 827.637 513.912 826.156C506.551 819.804 505.102 807.083 504.733 797.992C503.559 769.126 514.019 740.743 516.132 712.097Z"/>
	<path fill="#B7D5DC" transform="scale(0.44043 0.44043)" d="M456.13 717.196C454.167 725.182 446.736 750.619 451.378 757.116C452.11 758.139 452.413 758.051 453.571 758.146C462.807 753.825 475.15 724.54 479.869 714.829C472.917 742.098 463.566 795.211 447.455 816.652C443.726 814.916 434.375 815.886 430.414 817.234C430.128 817.332 429.863 817.484 429.587 817.609C428.045 815.383 427.102 812.895 426.643 810.229C425.348 802.707 426.501 794.383 428.207 787.02C431.395 773.263 437.632 759.893 442.814 746.77C445.902 738.952 448.634 730.601 452.382 723.086C453.418 721.008 454.802 719.095 456.13 717.196Z"/>
	<path fill="#FEE5A7" transform="scale(0.44043 0.44043)" d="M364.614 348.121C367.367 349.247 370.022 350.723 372.678 352.066Q372.045 352.423 371.419 352.791C369.261 354.067 367.017 355.508 366.467 358.142C365.729 361.672 368.319 365.143 370.234 367.864C357.973 371.715 345.509 374.72 333.028 377.758Q292.566 387.773 251.314 393.75C247.641 394.424 243.84 394.601 240.12 394.912C246.732 388.883 254.465 378.451 261.926 374.261C265.651 372.168 298.321 366.304 305.579 364.56C325.376 359.803 345.267 354.49 364.614 348.121Z"/>
	<path fill="#FEE5A7" transform="scale(0.44043 0.44043)" d="M805.818 384.992C813.472 386.894 821.092 388.994 828.764 390.812C834.462 392.163 840.378 393.109 845.98 394.799C853.828 397.167 861.593 400.561 869.26 403.503C878.982 407.235 889.249 410.683 898.502 415.463C904.834 418.734 916.585 426.386 921.245 431.718C916.22 432.659 910.037 432.141 904.902 431.881C866.937 429.955 826.158 415.184 791.616 399.844C793.961 397.315 796.211 396.326 799.309 394.925C802.161 393.635 805.622 391.989 806.573 388.734C807.014 387.226 806.461 386.299 805.818 384.992Z"/>
	<path fill="#9DAF83" transform="scale(0.44043 0.44043)" d="M674.232 538.874C676.186 541.641 678.848 551.179 680.518 555.07C683.595 562.243 687.32 569.134 690.653 576.192C683.147 595.346 672.117 612.739 664.94 632.078C663.631 629.96 662.134 627.999 660.636 626.014C650.145 613.325 643.503 600.36 637.077 585.343C640.939 580.083 645.539 575.344 649.865 570.462C658.744 560.442 667.327 550.38 674.232 538.874Z"/>
	<path fill="#9DAF83" transform="scale(0.44043 0.44043)" d="M692.878 579.291C697.465 582.594 703.816 593.546 707.566 598.525Q713.311 606.11 719.769 613.098C717.307 633.961 707.646 654.579 694.991 671.104C692.651 668.956 688.095 660.898 685.632 657.571C680.11 650.113 674.003 643.107 668.385 635.717C671.475 623.442 678.143 612.062 683.642 600.749C687.051 593.736 689.97 586.522 692.878 579.291Z"/>
	<path fill="#9DAF83" transform="scale(0.44043 0.44043)" d="M426.067 455.495C431.168 458.929 435.718 463.165 440.74 466.724C448.078 471.924 456.385 476.085 464.583 479.759C445.17 491.216 423.473 499.609 401.056 502.42C390.064 503.029 375.538 503.743 365.352 498.961C363.877 498.269 363.01 497.604 362.476 496C364.696 479.525 411.904 466.49 425.48 455.954L426.067 455.495Z"/>
	<path fill="#9DAF83" transform="scale(0.44043 0.44043)" d="M723.022 616.281C738.045 630.7 748.568 649.068 756.73 668.003C745.142 679.86 736.172 689.337 722.784 699.44L712.981 706.603C707.574 695.949 702.695 684.951 696.773 674.573C710.77 657.454 719.755 638.231 723.022 616.281Z"/>
	<path fill="#FEE5A7" transform="scale(0.44043 0.44043)" d="M330.528 333.195C334.109 332.839 341.312 335.463 345.38 336.137C349.303 336.788 353.246 337.183 357.207 337.519C358.357 340.906 359.932 343.317 362.187 346.031C322.393 357.527 273.769 370.246 232.377 372.601C222.183 373.416 211.48 374.384 201.288 373.343C205.669 371.779 209.746 368.697 213.654 366.183C222.007 360.809 234.526 352.041 243.405 348.186C248.059 346.166 261.923 344.97 267.496 344.019C288.52 340.432 309.46 336.565 330.528 333.195Z"/>
	<path fill="#FEE5A7" transform="scale(0.44043 0.44043)" d="M323.025 306.709C329.16 305.887 333.982 306.791 339.857 308.457C334.549 311.439 325.78 315.216 322.544 320.411C321.637 321.867 321.219 323.502 321.642 325.192C322.334 327.957 324.698 329.335 326.929 330.781C283.123 335.704 240.321 348.026 195.881 343.435C187.291 342.371 179.591 340.449 171.514 337.337C183.927 332.267 196.604 327.424 208.739 321.723C213.92 319.289 218.919 315.149 224.379 313.52C230.153 311.798 249.146 311.734 256.136 311.334Q289.609 309.434 323.025 306.709Z"/>
	<path fill="#FEE5A7" transform="scale(0.44043 0.44043)" d="M142.147 103.75C142.979 103.945 142.646 103.77 143.337 104.35C153.374 112.758 166.013 119.186 177.472 125.468C229.418 153.947 285.305 170.998 342.431 185.693C355.323 189.009 368.359 191.755 381.235 195.113C469.011 218.006 460.706 289.359 506.427 349.105Q513.644 358.531 521.796 367.161Q529.947 375.791 538.947 383.533C543.615 387.486 555.162 392.613 557.808 397.131C553.183 397.044 546.46 392.191 542.701 389.686C497.275 359.415 476.201 301.203 445.918 257.916C437.108 245.323 425.73 232.781 413.828 223.08C389.926 203.599 354.915 188.56 324.619 182.964C317.414 181.633 309.982 181.059 302.707 180.13Q284.757 177.904 266.916 174.93C257.634 173.409 237.447 170.577 229.546 167.473C225.124 165.736 221.008 162.452 216.787 160.199C184.981 143.213 167.622 128.979 142.147 103.75Z"/>
	<path fill="#FEE5A7" transform="scale(0.44043 0.44043)" d="M93.7489 175.888C97.8504 176.951 102.009 180.645 105.897 182.496C113.962 186.337 123.394 189.385 132.089 191.384C141.274 193.497 151.211 195.103 160.668 194.747C165.811 194.553 171.504 193.433 176.596 194.035C188.935 195.494 201.279 197.817 213.538 199.837C237.878 203.849 262.293 207.908 286.851 210.333C285.289 211.002 283.721 211.666 282.184 212.391C279.951 213.443 277.087 215.277 276.477 217.865C276.209 219.001 276.443 220.105 277.082 221.07C280.714 226.553 293.636 229.303 299.632 230.735L308.884 232.897C308.095 233.152 307.3 233.381 306.508 233.624C298.549 236.069 287.227 234.462 278.911 234.095C263.986 233.437 249.133 232.133 234.25 230.895C225.291 230.149 216.153 229.77 207.258 228.508C199.026 227.339 190.868 225.339 182.775 223.46C163.983 219.095 145.765 214.535 128.814 204.895C115.416 197.277 104.103 187.199 93.7489 175.888Z"/>
	<path fill="#FEE5A7" transform="scale(0.44043 0.44043)" d="M380.709 385.941C381.945 386.333 382.796 386.948 383.825 387.7C384.791 389.186 384.325 390.585 384.468 392.248C385.064 399.23 391.32 404.546 396.217 408.756C394.833 410.574 394.045 412.084 394.177 414.425C394.618 422.281 401.684 426.378 406.59 431.427C407.575 432.44 408.008 432.985 407.944 434.394C398.599 443.35 339.154 460.732 324.227 463.761C318.734 464.875 312.828 465.668 307.217 465.535C305.478 465.494 303.631 465.521 302.373 464.211C302.474 463.57 302.443 463.562 302.742 462.858C304.207 459.418 308.926 455.491 311.59 452.837C317.413 447.036 323.346 441.19 330.433 436.916C335.773 433.696 342 432.026 347.854 429.978Q358.119 426.492 368.129 422.33C372.559 420.55 377.133 418.752 381.428 416.675C383.804 415.526 390.457 411.987 391.355 409.486C388.245 410.114 385.578 412.168 382.668 413.404C378.63 415.12 374.43 416.611 370.311 418.131C349.163 425.934 304.513 441.114 282.577 440.394C286.927 433.157 300.089 418.088 307.138 413.625C312.674 410.119 328.554 406.583 335.549 404.282C351.128 399.156 366.159 393.577 380.709 385.941Z"/>
	<path fill="#FEE5A7" transform="scale(0.44043 0.44043)" d="M132.345 287.088L132.971 287.051C140.777 286.525 148.612 284.975 156.321 283.688C165.877 282.093 175.469 280.583 184.992 278.798C191.465 277.585 198.138 275.676 204.71 275.236C216.584 274.44 230.623 276.473 242.682 277.222Q271.405 278.989 300.181 279.116C301.574 283.476 303.303 285.913 307.408 288.123C313.751 291.538 322.027 292.474 329.02 293.875L324.96 297.822C325.715 299.646 326.422 301.512 327.292 303.285C306.76 305.48 285.828 306.095 265.201 307.104C225.703 309.038 153.13 315.443 120.437 289.969C119.991 289.621 119.579 289.233 119.159 288.855C123.43 288.18 128.233 288.34 132.345 287.088Z"/>
	<path fill="#FEE5A7" transform="scale(0.44043 0.44043)" d="M205.957 232.141C213.886 231.929 222.415 233.265 230.35 233.935Q252.401 236 274.502 237.419C281.406 237.884 288.289 238.552 295.214 238.558C291.401 240.754 285.856 243.727 284.761 248.352C284.241 250.551 284.965 252.699 286.249 254.494C292.125 262.706 306.142 264.978 315.366 266.285C309.879 269.02 304.872 271.964 300.004 275.704Q268.764 275.572 237.621 273.109C210.778 270.885 182.951 268.949 157.4 259.893C142.829 254.729 128.945 247.668 114.569 241.96C145.798 242.019 175.475 238.981 205.957 232.141Z"/>
	<path fill="#B7D5DC" transform="scale(0.44043 0.44043)" d="M95.5216 104.24C101.433 107.15 107.405 112.091 112.834 115.881Q126.526 125.465 140.634 134.426C149.858 140.201 159.16 146.462 168.858 151.382C206.716 170.587 249.546 176.848 291.207 182.233C289.711 183.482 288.168 184.614 287.314 186.411C286.507 188.109 286.756 190.363 287.556 192.011C291.051 199.211 303.834 202.958 310.886 205.495C311.536 205.699 312.075 206.002 312.676 206.319C312.371 206.471 312.084 206.668 311.761 206.775C307.711 208.121 289.473 207.59 284.999 207.177C260.382 204.907 235.626 200.033 211.243 195.948C198.903 193.88 185.673 192.813 173.621 189.519C166.959 187.698 160.779 184.459 154.891 180.91C132.902 167.656 117.07 148.726 104.949 126.365C101.104 119.272 97.4522 112.119 95.5216 104.24Z"/>
	<path fill="#ECB664" transform="scale(0.44043 0.44043)" d="M104.998 241.386C109.742 244.989 115.791 247.714 121.078 250.434C145.508 263.004 168.754 270.079 196 272.946C186.54 275.165 176.746 276.362 167.164 277.982C156.147 279.844 145.197 282.1 134.201 284.084C129.283 285.02 122.002 287.313 117.201 286.802C115.866 287.71 115.333 287.723 114.987 289.348C117.373 294.621 135.574 301.962 140.975 303.989C164.171 312.691 193.838 315.509 218.61 312.911C210.86 317.71 202.019 321.094 193.673 324.7C187.114 327.533 180.597 330.638 173.938 333.215C173.233 332.83 154.243 331.242 149.898 330.158C129.822 325.15 109.59 316.713 91.5967 306.53C81.0097 300.539 66.3345 291.38 63.1389 278.678Q63.0221 278.202 62.9294 277.72Q62.8367 277.239 62.7684 276.753Q62.7001 276.267 62.6563 275.779Q62.6125 275.291 62.5934 274.801Q62.5742 274.311 62.5798 273.82Q62.5853 273.33 62.6156 272.84Q62.6458 272.351 62.7006 271.864Q62.7555 271.376 62.8348 270.892Q62.9141 270.408 63.0176 269.929Q63.1212 269.45 63.2488 268.976Q63.3763 268.503 63.5276 268.036Q63.6788 267.57 63.8534 267.112Q64.0279 266.653 64.2253 266.204Q64.4227 265.755 64.6424 265.317Q64.8621 264.879 65.1037 264.452Q65.3452 264.025 65.6079 263.611C73.4779 250.952 91.3124 244.683 104.998 241.386Z"/>
	<path fill="#B7D5DC" transform="scale(0.44043 0.44043)" d="M453.276 632.581C453.35 637.137 442.936 645.874 443.486 652.489C444.438 653.882 446.468 654.11 447.956 654.791C447.612 657.775 444.891 660.469 445.089 663.414C445.205 665.149 445.771 666.47 447.073 667.63C448.13 667.858 448.618 667.626 449.563 667.191C450.502 666.759 450.631 666.657 451.712 666.669C453.093 671.472 448.253 679.213 450.178 685.396C452.88 688.333 453.498 685.233 456.237 685.619C456.131 686.392 455.955 687.052 455.584 687.745C453.829 691.016 450.983 693.934 448.699 696.869C443.571 703.46 438.301 710.129 433.449 716.909Q421.039 734.58 408.924 752.454C404.064 759.551 399.374 766.935 393.83 773.517C390.755 777.168 386.026 782.347 381.317 783.691C378.647 784.453 375.523 784.18 373.16 782.66C371.169 781.38 369.907 779.429 369.42 777.129C368.348 772.068 370.501 767.014 373.134 762.801C379.469 752.667 390.423 742.85 398.451 733.645C405.809 725.207 412.759 716.429 419.893 707.803C429.985 695.6 439.93 683.735 448.881 670.64L448.708 669.81L449.598 669.179L449.025 670.41L449.628 669.206L448.873 669.646L449.181 670.157L448.687 669.821C442.817 675.856 437.446 682.428 431.858 688.728C419.078 703.136 406.426 717.694 393.434 731.911C387.413 738.824 378.989 749.346 371.037 753.872C368.511 755.31 365.364 756.453 362.468 755.498C360.243 754.764 358.614 752.684 357.616 750.656C355.226 745.8 358.694 739.715 361.472 735.748C371.307 721.7 388.201 708.739 401.17 697.172C410.885 688.507 420.068 679.596 429.088 670.221C433.69 665.438 439.764 660.114 442.105 653.794C433.063 660.455 422.563 671.75 413.983 679.572C404.926 687.828 395.277 695.426 386.061 703.504C379.615 709.153 373.519 715.548 366.808 720.846C366.123 721.386 365.763 721.583 364.905 721.7C362.407 720.669 359.829 720.174 357.261 719.382C353.473 718.215 352.194 715.62 350.471 712.327C350.554 709.121 351.101 705.807 352.007 702.731C353.704 696.963 357.187 693.083 361.724 689.368C367.435 684.692 374.23 681.034 380.605 677.337C391.675 670.919 402.92 664.826 413.861 658.184Q424.598 651.618 434.785 644.228C438.349 641.62 441.808 638.595 445.508 636.206C447.7 634.791 450.443 634.182 452.766 632.873L453.276 632.581Z"/>
	<path fill="#FEE5A7" transform="scale(0.44043 0.44043)" d="M601.031 368.69C609.168 363.393 616.873 357.367 625.125 352.266C638.728 343.858 654.748 339.748 670.5 337.717C690.704 335.111 705.368 337.327 721.705 350.065C723.54 351.496 726.013 353.253 726.296 355.655C725.225 356.252 725.678 356.068 724.508 356.446C724.234 356.535 723.957 356.615 723.682 356.7L725.757 357.275L725.758 357.834C724.001 359.083 721.829 359.428 719.767 359.953L718.443 360.938C710.475 360.653 700.198 362.932 693.147 358.531C693.494 360.242 694.608 361.05 695.923 362.137C695.967 362.466 695.974 362.965 696.117 363.261C698.069 364.04 700.012 364.823 702.002 365.504C698.656 369.136 695.574 373.076 692.154 376.622C694.414 378.318 696.707 379.981 698.884 381.784C693.865 384.822 686.27 388.438 683.379 393.638C683.377 394.426 683.162 394.911 683.752 395.523C686.306 398.168 695.494 397.572 698.892 397.356Q701.381 397.181 703.86 396.894C697.19 405.431 685.978 419.946 680.838 429.22L672.414 433.581C671.89 427.454 672.388 421.288 671.775 415.189C669.716 421.722 668.693 428.446 670.247 435.214L663.021 439.833C667.219 438.748 671.341 437.489 675.474 436.186C671.639 439.111 665.604 444.897 660.504 444.083C651.17 442.593 608.944 409.482 600.499 402.122C596.239 398.409 592.401 394.219 588.698 389.959C598.636 385.036 608.616 380.488 617.71 374.074C612.544 375.981 607.4 377.88 602.492 380.4C597.253 383.089 592.091 386.546 586.58 388.6L582.482 384.583C589.818 380.75 597.12 376.876 604.155 372.509C610.318 368.683 632.309 352.686 637.822 351.309C635.616 350.494 633.044 351.318 630.998 352.25C622.845 355.965 610.637 363.655 603.303 368.852L601.031 368.69Z"/>
	<path fill="#3D3E3C" transform="scale(0.44043 0.44043)" d="M659.642 415.312C659.821 415.744 659.867 415.802 659.956 416.336C660.336 418.619 660.314 423.519 658.69 425.249C658.167 425.806 656.873 425.655 656.134 425.701C655.976 425.248 655.865 425.021 655.806 424.569C655.431 421.73 657.909 417.438 659.642 415.312Z"/>
	<path fill="#3D3E3C" transform="scale(0.44043 0.44043)" d="M638.572 397.423L639.08 397.59L638.938 398.376C635.722 402.445 631.467 406.223 626.697 408.338L625.869 407.256C627.722 403.59 635.089 399.768 638.572 397.423Z"/>
	<path fill="#3D3E3C" transform="scale(0.44043 0.44043)" d="M649.676 409.311C649.914 409.966 650.102 410.565 650.11 411.271C650.132 413.14 649.481 415.051 648.102 416.353C645.492 418.815 642.754 419.082 639.341 418.931L639.318 418.188C643.659 415.763 646.772 413.365 649.676 409.311Z"/>
	<path fill="#3D3E3C" transform="scale(0.44043 0.44043)" d="M633.445 383.5L633.856 384.244C633.744 384.938 633.764 385.038 633.432 385.782C630.907 391.442 623.208 396.312 617.688 398.699C617.254 398.077 617.477 398.488 617.216 397.379C619.368 394.254 629.61 387.299 633.445 383.5Z"/>
	<path fill="#3D3E3C" transform="scale(0.44043 0.44043)" d="M621.305 378.37C621.889 378.973 621.876 378.749 621.94 379.528C622.043 380.784 621.596 381.481 620.819 382.429C616.918 387.193 610.771 391.199 604.629 391.872C604.376 391.732 604.256 391.428 604.089 391.192C607.136 387.54 616.838 381.9 621.305 378.37Z"/>
	<path fill="#3D3E3C" transform="scale(0.44043 0.44043)" d="M658.636 347.048L661.426 346.931L661.783 347.28C656.077 352.704 648.136 359.676 640.633 362.045C639.629 362.099 639.096 362.139 638.209 361.635C638.24 361.501 638.25 361.36 638.301 361.231C639.542 358.061 655.206 348.627 658.636 347.048Z"/>
	<defs>
		<linearGradient id="gradient_0" gradientUnits="userSpaceOnUse" x1="683.95203" y1="365.21594" x2="702.04797" y2="346.78406">
			<stop offset="0" stop-color="#2E2529"/>
			<stop offset="1" stop-color="#3F3D3C"/>
		</linearGradient>
	</defs>
	<path fill="url(#gradient_0)" transform="scale(0.44043 0.44043)" d="M667.673 353.827C671.985 350.814 676.915 347.623 682.439 348.492C688.486 349.444 692.895 354.93 698.704 356.715C704.904 358.621 714.376 357.185 719.767 359.953L718.443 360.938C710.475 360.653 700.198 362.932 693.147 358.531C679.222 345.328 674.15 356.369 667.673 353.827Z"/>
	<path fill="#3A3A35" transform="scale(0.44043 0.44043)" d="M667.673 353.827C674.15 356.369 679.222 345.328 693.147 358.531C693.494 360.242 694.608 361.05 695.923 362.137C695.967 362.466 695.974 362.965 696.117 363.261L694.758 363.294C694.382 363.976 694.023 364.638 693.702 365.348C692.965 367.862 690.347 370.149 688.078 371.339C683.791 373.588 679.398 373.31 674.817 372.487C672.844 371.383 670.904 370.123 669.456 368.371C665.228 364.909 663.356 361.168 657.418 360.603Q653.003 360.696 648.588 360.732C654.591 357.433 662.45 357.274 667.673 353.827Z"/>
	<path fill="#F8F6EE" transform="scale(0.44043 0.44043)" d="M671.695 361.463C672.067 359.612 672.194 358.462 673.971 357.389C675.062 356.731 675.535 357.064 676.658 357.404C677.094 359.443 677.316 362.054 678.727 363.645C679.965 364.27 681.063 364.471 682.41 364.687C683.036 365.447 683.14 365.6 683.391 366.483C681.272 366.982 679.65 367.116 677.535 366.484C674.633 365.617 673.06 364.114 671.695 361.463Z"/>
	<path fill="#3D3E3C" transform="scale(0.44043 0.44043)" d="M684.92 367.01L685.057 366.539L685.275 365.751C685.508 364.927 685.853 364.018 685.929 363.165C686.208 360.017 683.748 358.063 681.786 355.994C683.604 356.853 685.646 357.674 687.295 358.823C689.23 360.171 689.815 361.854 690.212 364.085L691.162 362.585L691.868 362.577C692.447 363.496 692.987 364.534 693.702 365.348C692.965 367.862 690.347 370.149 688.078 371.339C683.791 373.588 679.398 373.31 674.817 372.487C672.844 371.383 670.904 370.123 669.456 368.371C669.245 365.143 667.162 362.164 665.271 359.693C666.53 359.747 668.023 359.43 668.776 360.687C670.268 363.177 669.434 365.115 672.568 366.619C672.792 366.726 673.027 366.807 673.257 366.902C672.376 365.846 671.269 364.765 670.929 363.401C670.721 362.564 671.274 362.138 671.695 361.463C673.06 364.114 674.633 365.617 677.535 366.484C679.65 367.116 681.272 366.982 683.391 366.483L684.92 367.01Z"/>
	<path fill="#F8F6EE" transform="scale(0.44043 0.44043)" d="M684.92 367.01L685.057 366.539L685.275 365.751C685.508 364.927 685.853 364.018 685.929 363.165C686.208 360.017 683.748 358.063 681.786 355.994C683.604 356.853 685.646 357.674 687.295 358.823C689.23 360.171 689.815 361.854 690.212 364.085C689.061 367.069 687.171 368.97 684.17 370.18C681.415 371.29 678.288 371.155 675.457 370.457L675.428 370.341L676.002 369.568C677.114 369.984 678.33 370.121 679.521 370.045C681.537 369.917 684.611 369.022 685.898 367.379L684.92 367.01Z"/>
	<path fill="#B7D5DC" transform="scale(0.44043 0.44043)" d="M851.269 268.981L852.034 269.124C851.319 270.102 817.732 288.679 812.862 291.567C803.998 296.825 788.961 305.588 781.692 312.353C795.195 307.735 810.799 295.582 823.921 288.529C821.891 290.355 819.887 292.276 817.643 293.839C814.693 295.892 809.79 297.922 807.488 300.51C807.877 301.247 807.855 301.475 808.611 301.887C812.131 302.145 816.626 298.421 819.99 297.207C821.827 296.544 823.821 296.362 825.628 295.674C826.411 295.376 827.185 295.025 827.959 294.703L828.822 295.137C828.974 295.735 829.013 295.757 829.006 296.478C828.93 304.397 817.725 308.67 812.671 313.426C812.533 313.556 812.399 313.689 812.263 313.821C816.52 312.725 819.794 311.17 823.544 308.934C821.622 311.291 819.832 313.373 817.302 315.118C812.328 318.548 806.185 321.24 800.595 323.504C798.523 324.343 796.193 324.868 794.218 325.89C793.247 326.393 792.961 326.549 792.433 327.531L792.915 328.078C798.41 328.866 814.791 320.43 820.956 318.32C824.078 317.252 827.461 316.687 830.668 315.858C828.297 318.279 827.071 321.088 824.927 323.619C817.489 332.399 807.513 336.596 796.753 339.814C793.66 340.739 788.132 341.046 785.63 342.738C786.397 343.576 786.021 343.418 787.034 343.662C794.378 345.428 819.361 335.983 826.154 332.008C820.352 340.381 802.132 354.399 792.179 356.953C787.962 358.036 774.994 357.29 772.539 359.254L772.705 360.138C778.923 363.751 800.694 358.254 808.995 358.821C810.155 358.9 810.25 358.968 810.993 359.785C810.976 360 810.976 360.217 810.942 360.429C809.559 368.999 796.337 370.603 790.338 374.51L790.649 375.032C795.738 375.774 800.866 374.253 805.812 373.167C801.235 378.512 795.317 383.285 788.762 385.948C784.472 387.692 772.349 388.268 770.203 390.964L770.56 391.677C779.141 393.223 793.14 388.726 801.992 386.92C795.909 392.904 785.743 398.227 777.427 399.923C774.144 400.593 769.248 400.823 766.413 402.546L766.904 403.111C771.767 404.281 783.202 405.349 787.484 402.701C787.614 402.621 787.74 402.537 787.868 402.454L787.87 402.643L788.286 402.626C787.414 404.257 784.655 404.947 784.249 406.504C785.316 406.929 786.247 407.364 787.22 407.974C784.669 411.02 768.74 412.648 764.371 413.636Q763.115 413.855 761.863 414.097C760.516 414.366 759.194 414.498 758.402 415.674C760.914 418.238 770.844 416.981 774.44 417.318C775.725 417.439 776.199 417.76 777.027 418.701C775.115 423.26 755.218 426.612 750.406 427.192C746.983 427.606 734.569 427.323 732.523 428.859C740.067 434.134 752.734 428.672 761.187 432.252C762.344 432.741 762.698 433.111 763.086 434.27C762.785 434.876 762.792 434.955 762.247 435.52C758.918 438.971 746.36 441.326 741.539 441.628C736.945 441.916 732.14 441.508 727.534 441.346C731.917 443.763 743.983 445.909 745.896 448.699C745.847 449.393 745.987 449.661 745.438 450.182C738.986 456.305 719.47 449.593 710.921 449.547L710.131 449.546C717.45 453.672 725.948 455.59 734.012 457.711C735.242 459.3 736.199 460.362 736.456 462.413C736.14 463.344 736.168 463.742 735.37 464.382C731.097 467.809 713.401 465.457 707.747 465.014C712.277 467.662 720.338 469.141 723.431 473.488C722.23 476.032 709.646 472.438 706.523 475.029C708.203 477.929 713.319 478.178 714.995 481.681L714.58 482.279C710.475 483.403 705.382 482.125 701.224 481.487C704.156 484.084 707.129 486.368 710.386 488.545Q707.557 488.524 704.73 488.448C702.217 488.372 698.639 488.105 696.977 485.936C694.277 482.412 696.135 472.735 696.463 468.375C699.142 465.613 700.935 461.376 701.287 457.568C702.265 446.961 694.457 437.155 687.967 429.652C691.577 423.721 695.397 417.806 699.525 412.22C701.681 409.303 704.097 406.555 707.115 404.498C715.624 398.7 734.007 395.263 744.22 393.69C746.557 397.09 748.504 400.725 750.908 404.1C753.306 401.545 754.97 398.984 756.095 395.644C758.603 388.201 756.895 379.989 753.358 373.172C748.482 363.772 740.426 358.27 730.532 355.154L730.309 354.862C728.114 351.943 725.585 349.504 722.959 346.977C756.933 303.158 801.041 286.82 851.269 268.981Z"/>
	<path fill="#FEE5A7" transform="scale(0.44043 0.44043)" d="M596.433 446.201C601.514 451.577 606.917 457.657 610.092 464.385C610.87 466.034 611.528 468.878 613.515 469.107C617.51 462.405 616.206 453.65 620.691 446.956C623.598 455.996 628.644 463.043 632.564 471.518C635.251 477.327 636.891 483.612 639.881 489.282C627.125 515.911 623.021 557.353 632.678 584.987C634.484 590.157 637.04 595.173 638.595 600.402C633.382 604.936 626.871 608.46 621.099 612.305Q599.107 627.108 576.092 640.264C569.914 643.797 563.628 647.706 557.062 650.449C551.689 653.976 545.089 656.203 538.843 657.551C540.094 653.939 542.308 650.256 542.695 646.465C541.903 646.526 541.53 646.789 540.913 647.34C538.181 649.777 535.689 653.602 533.236 656.381C526.156 664.405 518.594 672.237 510.042 678.702C508.057 680.203 505.629 682.272 503.05 681.911C501.106 674.551 524.191 656.447 525.308 648.626L524.486 648.441C519.383 650.773 515.521 655.685 511.543 659.54C504.438 666.424 497.011 674.529 489.03 680.365C488.853 680.495 488.672 680.62 488.493 680.747C489.833 676.309 491.573 672.222 494.036 668.281C496.2 664.82 499.466 661.146 500.545 657.163C495.798 657.161 481.533 677.187 474.979 680.75C474.789 680.854 474.596 680.953 474.404 681.055C474.543 680.516 474.693 679.985 474.841 679.449C476.49 673.471 486.789 659.064 486.873 656.013L486.239 655.61C484.527 655.85 483.218 657.09 481.99 658.228C478.469 661.492 475.606 665.634 472.511 669.304C468.905 673.58 465.021 677.576 461.126 681.586C463.241 676.009 470.419 661.069 469.961 656.19L469.252 655.875C461.925 660.184 460.131 670.738 454.881 676.798C454.661 677.052 454.432 677.298 454.207 677.548C455.638 670.1 459.283 662.963 460.341 655.55C460.516 654.33 460.659 653.575 459.864 652.577C455.841 654.408 453.34 660.885 449.81 663.866C449.667 663.987 449.517 664.101 449.371 664.219C451.434 659.667 454.774 655.823 457.591 651.725C460.133 648.025 462.454 644.165 464.749 640.308C466.425 637.492 469.678 633.195 468.826 629.845L468.075 629.787C463.174 633.246 452.283 648.875 448.302 654.522C451.151 643.544 458.814 633.526 464.633 623.915C467.537 619.119 470.131 614.122 472.666 609.124C465.466 615.248 459.993 622.875 452.315 628.684C460.309 619.027 468.21 610.387 474.327 599.227C487.719 574.793 494.477 546.787 510.082 523.571C511.123 522.023 512.541 520.829 513.697 519.381C513.816 519.232 513.928 519.078 514.044 518.926C519.803 516.953 534.804 506.53 540.533 502.727C559.762 489.963 591.645 469.877 596.433 446.201Z"/>
	<path fill="#3D3E3C" transform="scale(0.44043 0.44043)" d="M598.026 543.761C598.602 543.934 599.026 544.223 599.538 544.533L599.496 545.657C597.874 548.26 595.259 550.19 592.971 552.2L590.777 551.319L590.763 550.431C591.406 549.403 591.927 548.758 592.895 548.02C594.666 546.669 596.336 545.211 598.026 543.761Z"/>
	<path fill="#3D3E3C" transform="scale(0.44043 0.44043)" d="M549.255 594.376C549.397 594.891 549.499 595.088 549.467 595.622C549.282 598.693 546.282 602.507 544.249 604.632C540.73 608.311 537.383 610.711 532.146 610.816L531.736 609.752L533.17 609.01L532.521 609.144C539.904 605.617 544.106 600.533 549.255 594.376Z"/>
	<path fill="#3D3E3C" transform="scale(0.44043 0.44043)" d="M541.78 580.965L542.208 581.461C541.195 584.988 538.785 588.634 536.274 591.265C532.799 594.906 530.636 596.098 525.609 596.251C525.365 595.879 525.276 595.456 525.143 595.034C525.59 594.729 526.033 594.417 526.491 594.128C532.371 590.426 536.202 584.822 541.78 580.965Z"/>
	<path fill="#B7D5DC" transform="scale(0.44043 0.44043)" d="M279.7 217.883Q281.479 216.909 283.332 216.084Q285.185 215.26 287.1 214.591Q289.015 213.922 290.978 213.414Q292.941 212.905 294.94 212.56C303.538 211.014 340.766 210.734 345.173 206.77C346.257 205.795 346.207 205.477 346.27 204.115C346.017 203.932 345.804 203.674 345.511 203.565C344.168 203.066 336.443 203.879 334.519 203.851C321.946 203.671 301.594 200.125 292.024 191.168C290.82 190.041 290.254 189.228 290.193 187.579C290.816 186.752 291.354 186.108 292.276 185.602C298.344 182.271 323.663 187.692 331.092 189.419C345.918 192.865 359.507 198.361 373.226 204.878C386.99 211.417 400.736 219.618 412.282 229.601C422.666 238.58 431.545 249.413 439.774 260.343C469.301 299.563 488.787 345.28 525.356 378.926C535.215 387.997 545.593 396.225 558.737 399.811C558.822 399.913 558.906 400.016 558.992 400.117C563.283 405.162 565.346 411.641 569.488 416.883C577.669 427.239 587.695 436.279 596.433 446.201C591.645 469.877 559.762 489.963 540.533 502.727C534.804 506.53 519.803 516.953 514.044 518.926C513.516 518.568 513.826 518.828 513.255 518.003C515.175 512.136 520.443 506.177 523.755 500.89C524.412 499.841 525.702 498.177 525.431 496.978C518.975 501.33 516.357 510.732 510.628 516.049C508.937 517.619 506.203 518.405 504.129 519.42C492.622 525.056 461.15 539.189 449.305 538.821C448.979 537.631 448.906 537.607 449.401 536.492C465.458 525.368 479.095 504.104 492.434 489.659Q500.344 491.023 508.343 491.687C515.453 492.306 533.785 494.685 538.846 489.826C539.463 489.233 539.256 488.988 539.24 488.212C538.744 487.712 538.251 486.955 537.547 486.797C533.766 485.949 528.486 486.671 524.534 486.606C519.592 486.525 514.62 486.071 509.711 485.495C487.519 482.893 461.714 474.204 444.272 460.336C464.295 465.715 484.405 468.539 505.161 467.032C507.748 466.844 511.391 467.034 513.77 466.011L514.07 465.149C511.883 463.651 507.558 464.211 505.006 464.235C490.422 464.369 475.917 463.547 461.569 460.77C449.72 458.477 437.282 454.284 427.062 447.713C421.472 444.118 416.635 439.112 411.814 434.574Q412.775 435.058 413.762 435.486C434.511 444.639 467.369 446.904 488.683 438.773C480.945 438.984 473.282 440.126 465.512 440.187C446.693 440.335 416.605 436.181 402.722 422.065C400.248 419.549 397.375 415.932 397.381 412.234C397.906 411.184 397.907 411.163 398.966 410.664C403.361 412.731 407.387 415.604 411.82 417.712C423.404 423.219 439.708 427.146 452.261 422.661L452.029 422.231C444.957 420.833 437.697 422.249 430.428 420.516C419.873 417.998 395.294 405.643 389.772 396.056C388.891 394.527 388.105 392.96 388.603 391.243C390.691 391.301 397.866 395.416 400.372 396.41C408.433 399.609 416.614 401.704 425.096 403.398C431.418 404.66 454.017 408.863 458.436 405.92C457.512 404.152 449.57 404.113 447.453 403.886C426.613 401.659 392.753 393.229 379.169 376.862C378.114 375.59 377.77 374.738 377.909 373.105C378.625 372.367 378.769 372.167 379.857 372.1C382.711 371.925 390.909 373.446 394.995 373.549C412.591 373.995 432.188 371.217 447.504 362.041C443.223 362.686 438.903 364.329 434.725 365.489Q424.776 368.338 414.492 369.501C404.13 370.621 382.621 371.473 374.276 364.398C372.499 362.891 370.398 360.424 370.183 358.034C371.287 355.988 374.219 354.915 376.358 354.357C381.299 353.066 386.73 353.699 391.793 353.144C399.144 352.339 408.044 349.561 415.056 347.045C419.461 345.464 431.03 342.009 433.098 337.659L432.691 336.642C429.987 336.125 413.026 342.42 408.84 343.594C401.634 345.616 394.231 347.207 386.763 347.853C378.877 348.535 368.922 346.166 362.991 340.642C362.047 339.762 361.608 339.291 361.625 337.961C363.978 336.654 369.575 337.412 372.395 336.95C380.617 335.604 409.572 327.822 415.234 322.431C412.524 321.877 391.302 329.168 386.671 330.236C381.623 331.4 376.461 332.328 371.281 332.611C360.576 333.195 335.317 331.721 326.799 325.906C325.435 324.975 325.17 324.149 324.937 322.571C327.42 316.294 338.199 314.631 342.208 309.655L341.863 308.85C345.483 307.865 353.302 310.058 357.832 309.793C378.055 308.608 405.327 301.771 422.22 289.924C416.589 291.361 410.948 293.806 405.441 295.722C389.837 301.15 374.331 305.079 357.686 305.32C348.05 305.459 335.723 305.713 328.359 298.592C329.893 297.015 331.106 295.275 332.376 293.488C352.531 293.696 369.442 285.436 386.428 275.55C392.115 272.24 397.961 268.969 402.989 264.694C395.576 267.362 388.614 271.34 381.586 274.871C365.428 282.991 346.646 289.962 328.233 288.567C323.095 288.177 307.09 284.605 304.202 280.056C303.768 279.371 303.514 278.873 303.723 278.077C305.949 269.59 334.827 266.803 342.563 264.349C354.316 260.62 369.143 254.978 379.62 248.553L379.172 248.48L378.828 248.936L378.668 248.582C373.027 250.028 367.447 252.42 361.93 254.336C345.827 259.93 329.591 263.332 312.507 260.647C306.479 259.699 292.348 257.032 289.004 251.512C288.383 250.487 288.011 249.429 288.383 248.232C289.137 245.808 292.564 243.899 294.688 242.715C313.885 232.01 322.956 237.367 342.229 234.75C350.878 233.575 359.492 231.23 367.229 227.163C359.155 227.727 351.22 229.74 343.091 230.232C325.519 231.295 294.386 227.312 279.7 217.883Z"/>
	<path fill="#B7D5DC" transform="scale(0.44043 0.44043)" d="M239.177 439.952C253.611 434.291 267.294 433.692 282.543 434.382C281.212 436.575 279.19 439.434 280.098 442.128C280.584 443.572 281.815 444.424 283.202 444.871C291.38 447.508 317.643 439.958 326.602 437.079C319.819 442.237 300.073 456.009 299.241 464.319C299.131 465.426 299.3 466.534 299.978 467.444C301.567 469.576 305.033 469.918 307.472 470.017C317.681 470.431 328.565 467.859 338.378 465.142C335.733 468.43 327.285 476.545 327.808 480.936C327.919 481.87 328.207 482.385 328.897 483.057C329.584 483.725 331.31 484.199 332.192 484.482C344.77 486.919 355.894 485.242 368.132 482.061C364.505 485.523 358.999 490.73 358.819 496.068C358.749 498.116 359.589 499.835 361.063 501.227C367.942 507.726 385.068 507.555 393.857 507.015Q400.451 506.559 406.968 505.454Q413.485 504.348 419.861 502.603C414.858 507.222 403.599 516.15 403.504 523.524C403.483 525.167 404.14 526.608 405.357 527.714C409.089 531.106 416.907 531.236 421.713 531.473C433.839 531.297 445.052 530.494 456.312 525.587C453.189 528.603 449.883 531.552 447.111 534.898C445.885 537.989 445.446 540.32 446.804 543.463C447.929 546.068 449.463 548.219 452.207 549.235C460.518 552.31 475.571 545.901 483.02 542.197C489.402 539.022 495.399 535.128 501.157 530.938C495.791 539.958 490.351 548.969 485.776 558.426C477.51 575.515 476.888 585.483 461.959 599.514C450.443 610.338 428.058 621.566 413.382 627.907C391.28 637.457 354.437 645.263 344.664 669.566C343.368 672.79 342.398 676.068 342.555 679.587C342.603 680.669 342.741 681.728 343.026 682.773C343.292 683.751 343.622 684.605 344.07 685.513C342.45 688.625 343.662 694.789 344.667 697.932C345.13 699.379 345.779 700.63 346.905 701.677C345.743 707.431 344.784 713.18 348.231 718.427C350.325 721.615 353.896 723.893 357.641 724.542Q360.1 724.951 362.572 725.27C361.72 726.45 360.842 727.962 359.856 729.011C341.16 727.858 321.666 723.181 305.828 712.799C298.149 707.765 291.254 701.559 284.067 695.862Q280.188 692.761 276.111 689.926Q272.034 687.09 267.777 684.532Q263.52 681.974 259.103 679.705Q254.685 677.437 250.126 675.467C238.028 670.252 225.485 665.502 212.912 661.564C183.311 652.292 153.906 645.441 127.144 629.06C108.458 617.622 91.2742 600.543 86.0661 578.602C82.172 562.196 87.1494 543.917 95.8952 529.87C123.249 485.936 190.114 451.37 239.177 439.952Z"/>
	<path fill="#FEE5A7" transform="scale(0.44043 0.44043)" d="M385.72 190.622C385.885 190.36 386.036 190.088 386.216 189.837C390.715 183.564 397.436 177.708 402.944 172.309C443.558 132.499 500.808 106.061 557.256 100.115Q567.459 99.0179 577.714 98.6495Q587.97 98.2812 598.225 98.6436Q608.481 99.006 618.685 100.097Q628.889 101.188 638.989 103.003C680.625 110.733 724.639 130.531 757.511 157.186L757.561 157.506C764.689 161.548 775.835 173.088 781.878 179.19C798.83 196.153 813.578 215.993 826.182 236.345L827.15 237.08Q831.756 244.324 835.721 251.937Q839.686 259.551 842.98 267.478C842.876 267.492 842.77 267.495 842.667 267.52C830.865 270.334 818.709 275.566 807.615 280.371C797.39 284.799 787.054 289.279 777.339 294.764C755.753 306.952 735.053 324.99 722.173 346.24C718.814 343.802 715.434 341.441 711.785 339.45C708.286 337.541 704.557 335.951 700.655 335.084C684.927 331.59 657.01 334.762 641.665 339.266C636.998 340.636 632.423 342.315 628.134 344.625C617.783 350.201 608.527 357.856 598.466 363.957Q588.995 369.632 579.327 374.964C575.025 377.331 570.32 379.502 566.4 382.471C562.898 385.124 560.591 388.163 558.504 391.995C552.052 386.935 545.382 382.104 539.251 376.653C516.227 356.183 498.689 330.417 485.952 302.466C477.629 284.201 470.277 265.53 460.52 247.938C443.107 216.538 419.944 200.392 385.72 190.622Z"/>
	<path fill="#9DAF83" transform="scale(0.44043 0.44043)" d="M834.324 460.171C884.78 475.108 934.967 511.384 960.378 558.215C983.712 601.216 993.13 640.411 990.406 689.21Q989.78 698.871 988.607 708.481Q987.435 718.091 985.72 727.619Q984.005 737.147 981.754 746.563Q979.502 755.979 976.721 765.252C960.289 820.316 923.724 873.184 872.424 900.805C831.745 922.708 784.493 920.669 741.361 907.664C692.687 892.989 648.328 867.626 601.612 847.958Q582.499 839.887 562.646 833.862C552.537 830.822 541.896 828.411 532.048 824.65C533.949 821.884 535.224 819.356 535.936 816.05C541.133 791.923 529.674 738.326 525.104 712.693C524.165 707.428 520.942 693.104 522.262 688.703L523.652 688.675C527.494 685.939 535.53 666.332 537.535 660.88C553.11 659.446 566.564 652.095 579.557 643.831C579.659 648.711 579.974 653.639 581.54 658.3Q582.18 660.25 583.094 662.088Q584.009 663.926 585.178 665.613C587.381 668.783 597.063 679.037 600.514 680.258C601.712 680.681 601.938 680.61 602.984 680.085C601.953 674.614 596.817 668.646 595.021 662.844C593.242 657.095 594.81 650.195 592.698 644.554L592.038 644.731C588.675 651.017 589.828 658.122 590.568 664.875C585.637 656.741 584.949 649.834 584.809 640.44C594.352 634.664 604.025 629.136 613.492 623.229C619.838 619.269 625.955 614.921 632.355 611.058C635.889 616.437 639.367 622.228 643.795 626.92C640.266 628.953 637.854 631.963 634.776 634.534C632.765 636.214 630.497 637.547 628.264 638.905L627.726 638.161C626.805 638.954 626.5 639.495 626.398 640.744C626.219 642.923 626.636 645.163 626.408 647.344C623.768 649.158 620.362 649.925 617.525 651.586L616.459 651.698C614.967 651.094 614.451 649.804 613.69 648.48C612.12 651.23 614.046 660.545 614.602 663.917C614.341 664.253 614.157 664.459 613.97 664.863C612.38 668.296 616.766 676.064 618.243 679.156C610.576 673.777 606.408 667.613 602.128 659.365C601.367 661.947 600.203 664.915 600.654 667.637C601.275 671.388 607.736 676.079 610.663 678.251C615.392 681.761 624.819 687.233 630.956 685.922C632.293 685.636 630.538 685.805 632.532 685.704C636.408 690.504 646.3 701.712 646.204 707.916C646.086 715.499 636.091 713.613 632.522 717.373C630.82 719.166 633.046 723.831 633.084 726.167C633.144 729.897 630.942 734.31 631.494 737.827C631.713 739.218 631.901 739.374 632.977 740.101C635.733 740.433 638.271 739.377 640.79 738.374C653.865 733.166 660.508 724.279 665.928 711.625C668.486 715.568 671.183 719.437 672.198 724.113C675.594 739.759 654.41 749.649 654.276 755.98C654.259 756.809 654.656 756.916 655.195 757.453C656.061 757.678 656.788 757.828 657.691 757.773C665.693 757.285 675.964 750.607 681.17 744.638C684.641 740.66 686.876 735.896 688.771 731.013C697.181 709.348 688.282 691.696 674.011 675.027C669.768 670.07 662.637 665.339 660.261 659.24C658.029 653.511 658.988 638.25 658.488 631.017C667.925 643.05 678.482 654.118 686.469 667.253C696.857 684.336 704.412 703.17 715.34 719.893C721.609 729.485 728.964 738.285 735.956 747.348C738.25 750.32 741.081 752.958 742.898 756.254C742.975 758.314 742.805 759.763 744.247 761.339C745.561 761.585 746.167 761.54 747.423 761.081C749.264 758.345 748.966 752.646 750.007 749.231C752.753 740.218 756.933 731.562 760.236 722.735C767.916 702.206 768.714 682.751 759.999 662.459C757.213 655.971 754.103 649.261 750.214 643.369C737.348 623.874 718.215 607.738 704 588.996C695.946 578.379 690.344 567.061 684.853 555.016C687.604 551.752 689.283 548.542 690.82 544.592C693.67 545.182 696.579 545.648 699.498 545.644C703.699 545.638 706.758 544.807 709.741 541.776C711.547 539.94 715.178 542.012 717.574 541.201C718.728 540.81 719.88 539.779 720.331 538.654C721.057 536.841 720.422 535.239 719.787 533.528L719.575 532.972C721.972 532.082 728.133 535.423 731.839 534.438C734.279 533.789 738.165 531.776 739.194 529.275C739.766 527.886 739.061 526.119 738.624 524.769L738.472 524.307L738.824 523.776C742.416 524.527 745.471 524.693 749.006 523.369C751.013 522.616 753.794 520.724 754.349 518.478C754.837 516.504 753.883 515.883 752.805 514.36C754.961 513.171 761.562 514.987 764.441 514.658C766.772 514.391 769.5 513.099 771.623 512.104C774.703 510.661 779.633 508.327 780.831 504.994C780.646 501.599 778.761 500.041 776.562 497.722C783.063 496.736 793.041 494.588 797.134 488.948C797.885 487.913 798.262 486.674 797.878 485.409C797.172 483.087 794.617 482.254 792.624 481.315C796.489 480.871 800.359 480.207 804.072 479.023C807.228 478.016 809.838 476.801 811.424 473.775C811.434 472.058 811.027 471.638 810.168 470.193C813.773 470.433 817.301 470.219 820.89 469.862C824.627 469.49 831.761 468.996 834.027 465.564C835.218 463.761 834.719 462.133 834.324 460.171Z"/>
	<path fill="#3D3E3C" transform="scale(0.44043 0.44043)" d="M614.322 629.448C614.952 636.416 615.543 643.377 617.295 650.167C617.51 651.002 617.438 650.648 617.525 651.586L616.459 651.698C614.967 651.094 614.451 649.804 613.69 648.48C611.908 641.794 611.628 635.953 614.322 629.448Z"/>
</svg>
